<svg width="44px" height="38px" viewBox="0 0 44 38" version="1.1" xmlns="http://www.w3.org/2000/svg" xmlns:xlink="http://www.w3.org/1999/xlink">
    <g id="CAT" transform="translate(-1.000000, 0.000000)" fill-rule="nonzero" fill="#000000">
        <path d="M1,25.6 C1.1,26.2 1.6,26.7 2.2,26.7 C2.3,26.7 2.3,26.7 2.4,26.7 L8.4,25.8 C8.7,26.9 9.2,27.9 9.7,28.9 L4.9,31 C4.3,31.3 4,32 4.2,32.6 C4.4,33.1 4.9,33.4 5.3,33.4 C5.5,33.4 5.6,33.4 5.8,33.3 L11.1,31 C12.5,32.7 14.2,33.8 16.3,34.1 C17,35.3 18.9,37.5 23,37.5 C27.1,37.5 28.9,35.3 29.7,34.1 C31.8,33.9 33.5,32.7 34.9,31 L40.2,33.3 C40.4,33.4 40.5,33.4 40.7,33.4 C41.2,33.4 41.6,33.1 41.8,32.6 C42.1,32 41.8,31.2 41.1,31 L36.2,28.9 C36.7,27.9 37.1,26.9 37.5,25.8 L43.5,26.7 C43.6,26.7 43.6,26.7 43.7,26.7 C44.3,26.7 44.8,26.3 44.9,25.6 C45,24.9 44.5,24.3 43.8,24.2 L38,23.4 C38.2,22.3 38.3,21.2 38.3,20.1 L38.3,1.7 C38.3,1.2 38,0.8 37.6,0.6 C37.2,0.4 36.7,0.4 36.3,0.7 L28.6,5.8 C25,4.3 20.8,4.3 17.1,5.8 L9.4,0.7 C9,0.4 8.5,0.4 8.1,0.6 C7.9,0.8 7.6,1.3 7.6,1.7 L7.6,20 C7.6,21.1 7.7,22.2 7.9,23.3 L2.1,24.1 C1.4,24.3 0.9,25 1,25.6 Z M19.4,33.9 C21.1,33.5 22.2,32.7 23,31.8 C23.8,32.7 24.9,33.5 26.6,33.9 C25.9,34.5 24.7,35 23,35 C21.3,35 20.1,34.5 19.4,33.9 Z M10.1,20 L10.1,4 L16.4,8.2 C16.8,8.5 17.3,8.5 17.7,8.3 C21,6.8 24.9,6.8 28.3,8.3 C28.7,8.5 29.2,8.5 29.6,8.2 L35.9,4 L35.9,20 C35.9,20.9 35.8,22 35.6,23 L32.1,22.5 C31.4,22.4 30.8,22.9 30.7,23.6 C30.6,24.3 31.1,24.9 31.8,25 L35,25.5 C34.7,26.4 34.4,27.2 33.9,28 L30.2,26.4 C29.6,26.1 28.8,26.4 28.6,27.1 C28.3,27.7 28.6,28.5 29.3,28.7 L32.5,30.1 C31.5,31.1 30.3,31.8 28.9,31.8 C25.3,31.8 24.5,29.7 24.3,29.1 C24.3,29 24.3,29 24.3,28.9 L24.3,27.8 C24.3,27.8 24.3,27.8 24.3,27.8 L24.3,27.8 L26,26 C26.5,25.5 26.7,24.7 26.4,24.1 C26.1,23.4 25.5,23 24.8,23 L21.3,23 C20.6,23 19.9,23.4 19.7,24.1 C19.4,24.8 19.6,25.5 20.1,26 L21.8,27.7 C21.8,27.7 21.8,27.7 21.8,27.7 C21.8,27.7 21.8,27.7 21.8,27.7 L21.8,28.9 C21.7,29.3 21,31.6 17.2,31.6 C15.8,31.6 14.6,31 13.6,29.9 L16.8,28.5 C17.4,28.2 17.7,27.5 17.5,26.9 C17.2,26.3 16.5,26 15.9,26.2 L12,27.9 C11.6,27.1 11.2,26.3 10.9,25.4 L14.1,24.9 C14.8,24.8 15.3,24.2 15.2,23.5 C15.1,22.8 14.5,22.3 13.8,22.4 L10.4,23 C10.2,22 10.1,21 10.1,20 Z"></path>
    </g>
</svg>
