<svg width="46px" height="42px" viewBox="0 0 46 42" version="1.1" xmlns="http://www.w3.org/2000/svg" xmlns:xlink="http://www.w3.org/1999/xlink">
    <g stroke="none" stroke-width="1" fill="none" fill-rule="evenodd">
        <g fill-rule="nonzero" fill="#000000">
            <path d="M45.4,3.5 C45.2,3.2 44.9,3 44.6,3 L31.6,0.5 C31.2,0.4 30.7,0.6 30.4,0.9 C30.2,1.1 30.2,1.3 30.1,1.5 C26.7,0.8 23.1,0.8 22.9,0.8 C22.7,0.8 19.3,0.8 15.8,1.4 C15.8,1.2 15.7,1 15.5,0.8 C15.2,0.5 14.8,0.3 14.3,0.4 L1.4,3 C1.1,3 0.8,3.2 0.6,3.5 C0.4,3.8 0.4,4.1 0.4,4.5 L3.8,19 C4.1,20.3 5.2,21.2 6.5,21.3 C6.6,21.3 6.6,21.3 6.7,21.3 C7,21.3 7.3,21.3 7.6,21.2 L7.6,24.1 C7.6,32.7 10.8,37.8 16.4,38.2 C17.1,39.4 19,41.6 23,41.6 C27,41.6 28.9,39.4 29.6,38.2 C35.2,37.8 38.4,32.7 38.4,24.1 L38.4,24.1 L38.4,21.2 C38.7,21.3 39,21.3 39.3,21.3 C39.4,21.3 39.4,21.3 39.5,21.3 C40.8,21.2 41.9,20.3 42.2,19 L45.6,4.5 C45.7,4.2 45.6,3.8 45.4,3.5 Z M6.7,18.8 C6.6,18.8 6.3,18.7 6.3,18.4 L3.2,5.2 L12.8,3.3 L7.2,18.5 C7.1,18.8 6.9,18.8 6.7,18.8 Z M23,39.1 C21.3,39.1 20.1,38.6 19.4,38 C21.1,37.6 22.2,36.8 23,35.9 C23.8,36.8 24.9,37.6 26.6,38 C25.9,38.5 24.7,39.1 23,39.1 Z M35.9,24.1 C35.9,29.4 34.7,35.7 28.9,35.7 C25.3,35.7 24.5,33.6 24.3,33 C24.3,32.9 24.3,32.9 24.3,32.8 L24.3,31.7 C24.3,31.7 24.3,31.7 24.3,31.7 C24.3,31.7 24.3,31.7 24.3,31.7 L26,30 C26.5,29.5 26.7,28.7 26.4,28.1 C26.1,27.4 25.5,27 24.8,27 L21.3,27 C20.6,27 19.9,27.4 19.7,28.1 C19.4,28.8 19.6,29.5 20.1,30 L21.8,31.7 C21.8,31.7 21.8,31.7 21.8,31.7 C21.8,31.7 21.8,31.7 21.8,31.7 L21.8,33 C21.7,33.5 21,35.8 17.2,35.8 C11.4,35.8 10.2,29.5 10.2,24.2 L10.2,17.9 L15,4.2 C18.5,3.3 22.8,3.3 22.9,3.3 L23,3.3 C23,3.3 27.4,3.3 31,4.2 L35.9,17.8 L35.9,24.1 L35.9,24.1 Z M39.7,18.5 C39.6,18.8 39.4,18.9 39.3,18.9 C39.2,18.9 38.9,18.9 38.8,18.6 L33.3,3.3 L42.9,5.2 L39.7,18.5 Z"></path>
        </g>
    </g>
</svg>
